<?xml version="1.0" encoding="UTF-8"?>
<svg id="Layer_1" xmlns="http://www.w3.org/2000/svg" viewBox="0 0 2023.9 567">
  <defs>
    <style>
      .cls-1 {
        fill: #000;
        stroke-width: 0px;
      }
    </style>
  </defs>
  <polygon class="cls-1" points="91 252.2 282.6 252.2 282.6 175.2 91 175.2 91 77 309.8 77 309.8 0 0 0 0 435.3 91 435.3 91 252.2" />
  <path class="cls-1" d="M1836.6,435.3h84.9v-167.9c0-35.8,12.1-77,78.2-77,7.9,0,17,0,24.2,1.2v-86.1c-5.4-.6-10.9-1.2-16.4-1.2-51.5,0-70.9,31.5-88.5,64.3h-1.2v-55.8h-81.2v322.5Z" />
  <polygon class="cls-1" points="425.2 0 338.5 0 338.5 435.4 425.2 435.4 425.2 58 425.2 0" />
  <path class="cls-1" d="M760.2,112.8h-84.9v186.2c0,57.6-37.6,73.4-65.5,73.4-26.1,0-55.2-9.7-55.2-59.4V112.8h-84.9v212.2c0,82.5,46.1,118.8,109.8,118.8,44.9,0,78.8-19.4,98.2-54h1.2v45.5h81.2l.1-322.5h0ZM469.8,63.1h84.9V0h-84.9v63.1h0ZM675.3,63.1h84.9V0h-84.9v63.1Z" />
  <path class="cls-1" d="M1581.9,241.9c4.9-42.4,26.1-67.9,66.1-67.9,27.3,0,60.6,15.8,65.5,67.9h-131.6ZM1709.8,340.8c-6.7,23-30.9,35.2-54.6,35.2-68.5,0-73.4-54.6-75.8-78.8h221.3v-15.2c0-147.3-87.9-177.7-151.6-177.7-141.3,0-154.6,124.3-154.6,163.1,0,132.8,69.7,176.4,160.7,176.4,55.2,0,119.4-25.5,141.9-103.1l-87.3.1h0Z" />
  <path class="cls-1" d="M1235.4,275.9c0-75.2,35.2-98.2,66.7-98.2,47.3,0,72.8,42.4,72.8,94.6,0,44.2-14.5,93.4-72.1,93.4-50.4-.1-67.4-48.6-67.4-89.8M1377.9,112.8v47.9h-1.2c-10.3-21.2-34.5-56.4-94.6-56.4-70.9,0-134,54.6-134,166.2s61.2,166.7,138.8,166.7c50.9,0,72.2-23.6,86.1-48.5l1.2,1.2v38.8c0,52.1-21.8,74-67.3,74-49.1,0-55.8-16.4-59.4-32.7h-92.2c3.6,68.5,74,97,140.7,97,158.9,0,163.1-92.8,163.1-148.6V112.8h-81.2Z" />
  <path class="cls-1" d="M885.9,275.9c0-75.2,35.2-98.2,66.7-98.2,47.3,0,72.8,42.4,72.8,94.6,0,44.2-14.6,93.4-72.2,93.4-50.3-.1-67.3-48.6-67.3-89.8M1028.4,112.8v47.9h-1.2c-10.3-21.2-34.6-56.4-94.6-56.4-70.9,0-134,54.6-134,166.2s61.2,166.7,138.8,166.7c50.9,0,72.2-23.6,86.1-48.5l1.2,1.2v38.8c0,52.1-21.8,74-67.3,74-49.1,0-55.8-16.4-59.4-32.7h-92.2c3.6,68.5,74,97,140.7,97,158.9,0,163.1-92.8,163.1-148.6V112.8h-81.2Z" />
</svg>