<?xml version="1.0" encoding="UTF-8"?> <svg xmlns="http://www.w3.org/2000/svg" xmlns:xlink="http://www.w3.org/1999/xlink" width="189px" height="48px" viewBox="0 0 189 48" version="1.1"><title>Silkecement-logo</title><g id="Page-1" stroke="none" stroke-width="1" fill="none" fill-rule="evenodd"><g id="Desktop-HD" transform="translate(-48.000000, -40.000000)" fill="#4E4B48"><g id="Group" transform="translate(0.000000, 20.000000)"><g id="Silkecement-logo" transform="translate(48.000000, 20.000000)"><path d="M3.40951251,12.2164 L6.60251251,12.2164 C8.09151251,12.2164 8.71051251,11.5714 9.64851251,10.5964 C10.6975125,9.5044 12.0035125,8.1464 14.6045125,8.1464 L27.1655125,8.1464 L24.5565125,5.5384 L10.0875125,5.5384 L3.40951251,12.2164 Z" id="Fill-1"></path><path d="M12.5655125,31.5878 L14.4255125,33.4478 C16.0255125,35.0478 18.6185125,35.0478 20.2185125,33.4478 L23.4925125,30.1748 C20.6205125,30.7948 17.3505125,31.3508 12.5655125,31.5878" id="Fill-3"></path><path d="M13.3356125,15.9068 C14.7706125,14.8318 16.3976125,13.6138 19.6316125,13.6138 L32.6326125,13.6138 L30.0826125,11.0628 L14.6036125,11.0628 C13.2466125,11.0628 12.6516125,11.6818 11.7516125,12.6178 C10.6746125,13.7388 9.33361251,15.1338 6.60261251,15.1338 L0.635612506,15.1338 C0.146612506,15.9048 -0.0613874937,16.8038 0.0156125063,17.6838 L8.52061251,17.6838 C10.9636125,17.6838 12.0106125,16.8998 13.3356125,15.9068" id="Fill-5"></path><path d="M25.0356125,22.2113 C21.6066125,22.2113 20.0456125,23.0583 18.2366125,24.0373 C16.2956125,25.0893 14.0966125,26.2813 9.67761251,26.2813 L7.25861251,26.2813 L9.74461251,28.7673 C17.4166125,28.6043 21.4436125,27.6693 25.3496125,26.7623 C26.0126125,26.6083 26.6786125,26.4543 27.3646125,26.3023 L31.4556125,22.2113 L25.0356125,22.2113 Z" id="Fill-7"></path><path d="M9.67741251,23.3644 C13.3564125,23.3644 15.0524125,22.4454 16.8464125,21.4734 C18.7314125,20.4514 20.8674125,19.2944 25.0354125,19.2944 L34.1394125,19.2944 C34.6074125,18.4434 34.7514125,17.4614 34.5684125,16.5304 L19.6314125,16.5304 C17.3684125,16.5304 16.3604125,17.2854 15.0844125,18.2414 C13.6084125,19.3474 11.9354125,20.6004 8.52041251,20.6004 L1.57841251,20.6004 L4.34241251,23.3644 L9.67741251,23.3644 Z" id="Fill-9"></path><path d="M21.6397125,2.621 L20.2187125,1.2 C18.6187125,-0.4 16.0257125,-0.4 14.4257125,1.2 L13.0047125,2.621 L21.6397125,2.621 Z" id="Fill-11"></path><path d="M45.2720125,32.4066 C45.2720125,32.9156 45.0810125,33.5196 44.1280125,33.5196 C43.2380125,33.5196 42.0620125,31.7076 39.7740125,31.7076 C38.1850125,31.7076 36.4690125,32.4706 36.4690125,34.0916 C36.4690125,34.8536 36.8820125,35.6486 38.0260125,36.0936 L41.4900125,37.4916 C43.7780125,38.4136 45.7170125,39.5256 45.7170125,42.1956 C45.7170125,45.1826 43.0470125,47.0896 39.4880125,47.0896 C35.8020125,47.0896 33.3860125,44.9606 33.3860125,43.8796 C33.3860125,43.5306 33.8940125,42.7676 34.4660125,42.7676 C35.5470125,42.7676 36.5960125,45.1826 39.5830125,45.1826 C41.7760125,45.1826 43.2380125,43.8796 43.2380125,42.2906 C43.2380125,40.7966 42.1260125,40.1926 40.8860125,39.6846 L36.9460125,38.0636 C35.2290125,37.3646 33.9900125,36.3476 33.9900125,34.2496 C33.9900125,31.4846 36.7230125,29.8006 39.2980125,29.8006 C42.6020125,29.8006 45.3360125,31.1996 45.2720125,32.4066" id="Fill-13"></path><path d="M51.0871125,45.6275 C51.0871125,46.5805 50.6741125,47.0895 49.9431125,47.0895 C49.2121125,47.0895 48.7991125,46.5805 48.7991125,45.6275 L48.7991125,31.2625 C48.7991125,30.3095 49.2121125,29.8005 49.9431125,29.8005 C50.6741125,29.8005 51.0871125,30.3095 51.0871125,31.2625 L51.0871125,45.6275 Z M49.9431125,24.0805 C50.8011125,24.0805 51.5001125,24.7795 51.5001125,25.6375 C51.5001125,26.4955 50.8011125,27.1945 49.9431125,27.1945 C49.0851125,27.1945 48.3861125,26.4955 48.3861125,25.6375 C48.3861125,24.7795 49.0851125,24.0805 49.9431125,24.0805 L49.9431125,24.0805 Z" id="Fill-15"></path><path d="M57.5700125,45.6275 C57.5700125,46.5805 57.1570125,47.0895 56.4260125,47.0895 C55.6950125,47.0895 55.2820125,46.5805 55.2820125,45.6275 L55.2820125,23.8255 C55.2820125,22.8725 55.6950125,22.3645 56.4260125,22.3645 C57.1570125,22.3645 57.5700125,22.8725 57.5700125,23.8255 L57.5700125,45.6275 Z" id="Fill-17"></path><path d="M64.0528125,45.6275 C64.0528125,46.5805 63.6398125,47.0895 62.9088125,47.0895 C62.1778125,47.0895 61.7648125,46.5805 61.7648125,45.6275 L61.7648125,23.8255 C61.7648125,22.8725 62.1778125,22.3645 62.9088125,22.3645 C63.6398125,22.3645 64.0528125,22.8725 64.0528125,23.8255 L64.0528125,35.9665 L70.8858125,30.4365 C71.4578125,29.9605 71.7438125,29.8005 72.0618125,29.8005 C72.5698125,29.8005 73.0148125,30.2455 73.0148125,30.7865 C73.0148125,31.3265 72.7928125,31.6125 72.3478125,31.9615 L65.4828125,37.2695 L73.0788125,44.6745 C73.6828125,45.2465 73.9368125,45.6275 73.9368125,46.1365 C73.9368125,46.6765 73.4918125,47.0895 73.0148125,47.0895 C72.3158125,47.0895 71.9028125,46.7405 70.9808125,45.8185 L64.0528125,38.8265 L64.0528125,45.6275 Z" id="Fill-19"></path><path d="M87.0292125,37.5553 C86.9342125,34.7263 85.3452125,31.7073 82.2622125,31.7073 C79.1792125,31.7073 77.5902125,34.7263 77.4952125,37.5553 L87.0292125,37.5553 Z M77.4952125,39.4623 C77.5902125,42.4183 79.5922125,45.1823 82.5162125,45.1823 C86.1392125,45.1823 87.0932125,42.5763 88.1732125,42.5763 C88.8092125,42.5763 89.2542125,42.7993 89.2542125,43.6893 C89.2542125,44.7053 86.6162125,47.0893 82.6752125,47.0893 C77.2732125,47.0893 75.0162125,42.7033 75.0162125,38.4453 C75.0162125,34.1863 77.5272125,29.8013 82.2942125,29.8013 C87.0612125,29.8013 89.5082125,33.8053 89.5082125,38.0633 C89.5082125,38.6673 89.3172125,39.4623 87.9512125,39.4623 L77.4952125,39.4623 Z" id="Fill-21"></path><path d="M102.219713,44.1023 C102.632713,44.1023 103.172713,44.4833 103.172713,45.0243 C103.172713,46.4223 101.043713,47.0893 98.7877125,47.0893 C94.0207125,47.0893 91.5097125,42.7043 91.5097125,38.4453 C91.5097125,34.1863 94.2747125,29.8003 99.0737125,29.8003 C101.234713,29.8003 103.268713,30.6273 103.268713,31.5803 C103.268713,32.3113 102.887713,32.8523 101.996713,32.8523 C101.393713,32.8523 100.852713,31.8983 98.7877125,31.8983 C95.5457125,31.8983 93.9887125,35.5533 93.9887125,38.2543 C93.9887125,41.8133 95.7997125,44.9923 98.7877125,44.9923 C100.852713,44.9923 101.584713,44.1023 102.219713,44.1023" id="Fill-23"></path><path d="M117.632613,37.5553 C117.537613,34.7263 115.948613,31.7073 112.865613,31.7073 C109.782613,31.7073 108.193613,34.7263 108.098613,37.5553 L117.632613,37.5553 Z M108.098613,39.4623 C108.193613,42.4183 110.195613,45.1823 113.119613,45.1823 C116.742613,45.1823 117.696613,42.5763 118.776613,42.5763 C119.412613,42.5763 119.857613,42.7993 119.857613,43.6893 C119.857613,44.7053 117.219613,47.0893 113.278613,47.0893 C107.876613,47.0893 105.619613,42.7033 105.619613,38.4453 C105.619613,34.1863 108.130613,29.8013 112.897613,29.8013 C117.664613,29.8013 120.111613,33.8053 120.111613,38.0633 C120.111613,38.6673 119.920613,39.4623 118.554613,39.4623 L108.098613,39.4623 Z" id="Fill-25"></path><path d="M135.238313,45.6275 C135.238313,46.5805 134.825313,47.0895 134.094313,47.0895 C133.363313,47.0895 132.950313,46.5805 132.950313,45.6275 L132.950313,36.3155 C132.950313,32.5975 130.916313,31.8985 129.136313,31.8985 C127.293313,31.8985 125.259313,33.4245 125.259313,36.3155 L125.259313,45.6275 C125.259313,46.5805 124.846313,47.0895 124.115313,47.0895 C123.384313,47.0895 122.971313,46.5805 122.971313,45.6275 L122.971313,31.2625 C122.971313,30.3095 123.384313,29.8005 124.115313,29.8005 C124.846313,29.8005 125.259313,30.3095 125.259313,31.2625 L125.259313,32.0885 L125.322313,32.0885 C126.181313,30.8495 127.579313,29.8005 129.740313,29.8005 C131.711313,29.8005 133.427313,30.9135 134.189313,32.7565 C135.334313,30.8175 137.336313,29.8005 139.147313,29.8005 C142.134313,29.8005 145.217313,31.8035 145.217313,35.8395 L145.217313,45.6275 C145.217313,46.5805 144.804313,47.0895 144.073313,47.0895 C143.343313,47.0895 142.929313,46.5805 142.929313,45.6275 L142.929313,36.3155 C142.929313,32.5975 140.895313,31.8985 139.115313,31.8985 C137.272313,31.8985 135.238313,33.4245 135.238313,36.3155 L135.238313,45.6275 Z" id="Fill-27"></path><path d="M160.566613,37.5553 C160.470613,34.7263 158.881613,31.7073 155.799613,31.7073 C152.716613,31.7073 151.127613,34.7263 151.032613,37.5553 L160.566613,37.5553 Z M151.032613,39.4623 C151.127613,42.4183 153.129613,45.1823 156.053613,45.1823 C159.676613,45.1823 160.629613,42.5763 161.710613,42.5763 C162.346613,42.5763 162.791613,42.7993 162.791613,43.6893 C162.791613,44.7053 160.153613,47.0893 156.212613,47.0893 C150.809613,47.0893 148.553613,42.7033 148.553613,38.4453 C148.553613,34.1863 151.064613,29.8013 155.830613,29.8013 C160.598613,29.8013 163.044613,33.8053 163.044613,38.0633 C163.044613,38.6673 162.854613,39.4623 161.488613,39.4623 L151.032613,39.4623 Z" id="Fill-29"></path><path d="M168.193113,45.6275 C168.193113,46.5805 167.780113,47.0895 167.049113,47.0895 C166.318113,47.0895 165.905113,46.5805 165.905113,45.6275 L165.905113,31.2625 C165.905113,30.3095 166.318113,29.8005 167.049113,29.8005 C167.780113,29.8005 168.193113,30.3095 168.193113,31.2625 L168.193113,32.0885 L168.257113,32.0885 C169.115113,30.8495 170.513113,29.8005 172.674113,29.8005 C175.661113,29.8005 178.745113,31.8035 178.745113,35.8395 L178.745113,45.6275 C178.745113,46.5805 178.331113,47.0895 177.600113,47.0895 C176.869113,47.0895 176.456113,46.5805 176.456113,45.6275 L176.456113,35.7755 C176.456113,33.4245 174.867113,31.8985 172.325113,31.8985 C170.195113,31.8985 168.193113,33.4245 168.193113,36.3155 L168.193113,45.6275 Z" id="Fill-31"></path><path d="M185.799213,45.6275 C185.799213,46.5805 185.386213,47.0895 184.654213,47.0895 C183.924213,47.0895 183.510213,46.5805 183.510213,45.6275 L183.510213,31.8985 L182.017213,31.8985 C181.254213,31.8985 181.032213,31.3265 181.032213,30.9445 C181.032213,30.5635 181.254213,29.9915 182.017213,29.9915 L183.510213,29.9915 L183.510213,26.2725 C183.510213,25.2885 183.924213,24.7795 184.654213,24.7795 C185.386213,24.7795 185.799213,25.2885 185.799213,26.2725 L185.799213,29.9915 L187.293213,29.9915 C188.055213,29.9915 188.277213,30.5635 188.277213,30.9445 C188.277213,31.3265 188.055213,31.8985 187.293213,31.8985 L185.799213,31.8985 L185.799213,45.6275 Z" id="Fill-33"></path></g></g></g></g></svg> 